PathFileType	4	(X/Y/Z)	/Users/mathieubourgeois/Desktop/Analyse/Traitement/Sujet_08/Data/Transformed_Sujet_08_velo_60.trc
DataRate	CameraRate	NumFrames	NumMarkers	Units	OrigDataRate	OrigDataStartFrame	OrigNumFrames
120.000000	120.000000	4	35	mm	120.000000	1166	1866
Frame#	Time	RFHD			RANE			STRN			LANI			LKNE			T10			RHUM			RWRB			C7			LFWT			LTOE			RTOE			LWRA			LBWT			RBWT			RFWT			LKNI			RKNI			RKNE			LANE			RANI			LHEE			LHUM			LRAD			RRAD			RWRA			LWRB			LFHD			LBHD			RBHD			RSHO			LSHO			CLAV			LCAR			RCAR			
		X1	Y1	Z1	X2	Y2	Z2	X3	Y3	Z3	X4	Y4	Z4	X5	Y5	Z5	X6	Y6	Z6	X7	Y7	Z7	X8	Y8	Z8	X9	Y9	Z9	X10	Y10	Z10	X11	Y11	Z11	X12	Y12	Z12	X13	Y13	Z13	X14	Y14	Z14	X15	Y15	Z15	X16	Y16	Z16	X17	Y17	Z17	X18	Y18	Z18	X19	Y19	Z19	X20	Y20	Z20	X21	Y21	Z21	X22	Y22	Z22	X23	Y23	Z23	X24	Y24	Z24	X25	Y25	Z25	X26	Y26	Z26	X27	Y27	Z27	X28	Y28	Z28	X29	Y29	Z29	X30	Y30	Z30	X31	Y31	Z31	X32	Y32	Z32	X33	Y33	Z33	X34	Y34	Z34	X35	Y35	Z35	

1167	9.716666666666667	217.4841766357422	1515.205200195312	74.2972106933593	-56.44486618041994	482.1143188476562	169.0047607421875	-52.51803588867188	1163.556884765625	19.98621177673332	-277.8763427734375	397.065185546875	-77.14115142822271	-54.5614318847656	735.98779296875	-158.4426269531251	-212.4072723388672	1357.915771484375	19.04005050659169	145.2549285888672	1081.90380859375	199.9966278076172	328.7918701171874	909.708984375	249.8873748779297	4.490986347198484	1436.132080078125	20.12874221801749	-265.8244323730469	1095.812744140625	-103.7772827148438	-191.0960998535156	229.018798828125	-121.3345184326172	127.0052719116211	408.8857116699219	142.7078704833984	358.5274047851562	936.6223754882812	-173.3114013671875	-408.6455078125	1152.391723632812	-36.21157455444348	-405.1755676269531	1152.14990234375	95.13735961914051	-249.3734893798828	1093.266479492188	126.1665420532226	-85.41610717773438	676.5774536132812	-51.6283683776856	52.86019134521484	814.4451904296875	70.14514160156244	19.31069564819334	875.3184814453125	171.2600402832031	-319.5001831054688	403.8084411621094	-155.7824707031251	-27.49300956726075	493.9082641601562	90.59338378906247	-365.3569030761719	406.2892150878906	-111.1361083984376	129.350814819336	1076.90283203125	-171.8436279296875	184.1042175292969	1109.232666015625	-220.5942687988282	185.8558807373047	1105.2578125	246.6610412597656	359.1240539550781	932.064453125	186.2569885253906	321.4660034179688	896.3648071289062	-225.1047058105469	217.8385620117188	1526.923217773438	-53.28389739990241	62.53636550903321	1538.2119140625	-63.37562179565438	51.8637466430664	1542.441650390625	73.56842041015615	59.49910736083983	1367.370361328125	142.4581604003905	48.89456176757814	1366.379516601562	-124.0567321777345	52.91067504882812	1303.671875	14.68390846252434	420.2270507812501	908.907958984375	-257.2831115722656	431.3471374511718	896.9176025390625	276.9987182617188	
1168	9.725	217.5765228271484	1515.25634765625	73.92119598388665	-53.72421646118166	471.8489685058594	169.0027618408203	-52.37316513061523	1163.647338867188	19.68706321716301	-280.7344665527344	407.1630249023438	-76.84146881103521	-50.34572982788084	740.572265625	-158.8263549804688	-212.3110809326172	1357.9716796875	19.03349876403798	145.509033203125	1081.914306640625	199.9374237060547	328.8827819824218	909.6531372070312	250.0113067626953	4.600848674774167	1436.210571289062	19.78228759765616	-265.7820434570312	1095.957641601562	-103.4186401367188	-194.9671173095703	237.2056732177734	-121.2702102661133	130.5527801513672	400.3568420410156	142.7547149658203	358.5895690917969	936.6409301757812	-173.2169036865234	-408.5785217285156	1152.472290039062	-35.69153213500989	-404.7854309082031	1152.06982421875	95.75174713134754	-248.6167449951172	1093.0283203125	126.3844757080077	-83.18111419677734	681.8042602539062	-53.6528816223145	50.72514343261718	806.06591796875	70.7968368530273	17.02562141418455	866.98681640625	171.7887573242187	-320.9957275390625	413.5061340332031	-155.4341735839844	-26.20135307312013	484.0180053710938	90.97342681884763	-366.9351806640625	416.6956481933594	-110.7863769531251	129.4434814453125	1076.977783203125	-172.0636749267578	183.9253540039063	1109.234741210938	-221.196273803711	186.1694793701172	1105.324096679688	246.5711364746093	359.2659912109375	931.9549560546875	186.3549652099609	321.534423828125	896.35888671875	-224.957260131836	217.9630432128906	1526.980346679688	-53.62350463867194	62.66074371337891	1538.322021484375	-63.74978256225594	51.98407745361327	1542.527587890625	73.20147705078115	59.73110961914061	1367.336059570312	142.031753540039	48.92578125000001	1366.402709960938	-124.5175704956056	53.03662490844727	1303.76904296875	14.24317073822014	420.3602294921876	908.900146484375	-257.1488952636719	431.4765014648437	896.8626708984375	277.1212158203125	
1169	9.733333333333333	217.6912536621094	1515.3486328125	73.55786895751946	-51.3278503417969	461.437255859375	169.0368957519531	-52.14605712890625	1163.751098632812	19.29148101806633	-283.2703247070312	414.6481323242188	-76.23606872558599	-46.06058120727537	745.3683471679688	-159.1579589843751	-212.1534271240234	1358.039794921875	19.03416442871083	145.7790222167968	1081.947875976562	199.8905029296875	328.9952087402343	909.6106567382812	250.1737670898437	4.758528709411618	1436.310546875	19.38449859619132	-265.6759948730469	1096.102172851562	-103.0724411010743	-198.3258972167968	245.6381988525391	-121.1000366210938	133.5908966064453	391.6239318847656	142.7709197998047	358.6684875488281	936.6995239257812	-173.0949859619141	-408.4725646972656	1152.552001953125	-35.11723709106457	-404.2784729003906	1151.974853515625	96.33504486083973	-247.823486328125	1092.823120117188	126.5614852905272	-79.32748413085938	687.0209350585938	-54.12007904052739	47.36968231201171	796.2789916992188	71.26920318603511	14.48588562011717	858.4714965820312	172.3980712890624	-322.0964660644531	423.3575134277344	-154.967269897461	-24.14532852172853	474.2174987792969	91.09455871582028	-368.0696716308594	427.1850891113281	-110.3759155273438	129.5859680175782	1077.06201171875	-172.2666778564453	184.0532989501953	1109.26904296875	-221.4315490722657	186.5054016113281	1105.424438476562	246.4902954101562	359.3410034179688	931.8441162109375	186.4893646240234	321.6822204589844	896.3678588867188	-224.8359680175782	218.1254730224609	1527.131225585938	-53.95015716552741	62.80817794799805	1538.479614257812	-64.11833190917977	52.12575912475585	1542.614990234375	72.83405303955068	60.081974029541	1367.350708007812	141.6143341064452	49.00952148437501	1366.44873046875	-124.9748535156251	53.17971420288086	1303.900268554688	13.84055423736565	420.4993896484376	908.8900146484375	-256.95849609375	431.5852966308593	896.7994384765625	277.3004760742188	
1170	9.741666666666667	217.8454742431641	1515.4775390625	73.21852874755852	-49.43691253662112	450.876708984375	168.9872894287109	-51.87503051757812	1163.860107421875	18.88416862487785	-284.2917175292969	423.6463317871094	-77.00936889648443	-41.74037170410154	750.4183959960938	-159.4645385742188	-211.9541931152344	1358.11083984375	19.03609657287587	146.0527648925781	1082.005981445312	199.8854217529297	329.2301940917968	909.5776977539062	250.3889007568359	4.972113609313962	1436.445190429688	18.98083305358878	-265.5401611328125	1096.283935546875	-102.6837310791017	-201.1727447509765	254.2127685546875	-121.0200653076172	136.0957946777343	382.6559753417969	142.8174438476562	358.75439453125	936.7460327148438	-172.9547424316406	-408.3187866210938	1152.627075195312	-34.54037094116223	-403.7052917480469	1151.92431640625	97.00374603271473	-246.9962921142578	1092.615356445312	126.8366088867187	-75.11931610107422	692.2794799804688	-54.22998046875005	45.60528182983398	788.8926391601562	72.1264266967773	11.70609378814695	849.8587646484375	173.0662841796874	-322.8191833496094	433.3289489746094	-154.464096069336	-20.91357421875001	464.5435180664062	90.8117980957031	-368.7739868164062	437.7230529785156	-109.8699035644532	129.779296875	1077.183959960938	-172.4655151367188	184.2199859619141	1109.32177734375	-221.6421966552735	186.81298828125	1105.548461914062	246.407730102539	359.4853210449219	931.72900390625	186.6587524414062	321.833740234375	896.3971557617188	-224.704330444336	218.2786865234375	1527.340698242188	-54.33679199218756	62.95855712890626	1538.6796875	-64.47460937500009	52.29052734374999	1542.720947265625	72.50677490234365	60.39208221435545	1367.376953125	141.1766662597655	49.11204528808595	1366.53759765625	-125.446517944336	53.4205436706543	1303.9892578125	13.39295005798333	420.6177368164063	908.8704223632812	-256.7396240234375	431.6688842773437	896.71826171875	277.5479736328125	
